<mxfile host="Electron" modified="2023-08-29T06:29:39.773Z" agent="Mozilla/5.0 (Macintosh; Intel Mac OS X 10_15_7) AppleWebKit/537.36 (KHTML, like Gecko) draw.io/21.6.8 Chrome/114.0.5735.289 Electron/25.5.0 Safari/537.36" etag="e6HDEX28m5VXuk8YCg3t" version="21.6.8" type="device">
  <diagram id="fJOHUkSBHJa2ccyjLkHL" name="Page-1">
    <mxGraphModel dx="1595" dy="871" grid="1" gridSize="10" guides="1" tooltips="1" connect="1" arrows="1" fold="1" page="1" pageScale="1" pageWidth="827" pageHeight="1169" math="0" shadow="0">
      <root>
        <mxCell id="0" />
        <mxCell id="1" parent="0" />
        <mxCell id="at9cCEKQv4XKAlWNlcCG-51" value="" style="group;fillColor=#1ba1e2;fontColor=#ffffff;strokeColor=#006EAF;" connectable="0" vertex="1" parent="1">
          <mxGeometry x="827" y="450" width="543" height="166" as="geometry" />
        </mxCell>
        <mxCell id="at9cCEKQv4XKAlWNlcCG-52" value="Graphic Pipeline" style="rounded=0;whiteSpace=wrap;html=1;dashed=1;verticalAlign=top;" vertex="1" parent="at9cCEKQv4XKAlWNlcCG-51">
          <mxGeometry width="543" height="166" as="geometry" />
        </mxCell>
        <mxCell id="xkSgb3V-nkHPteCypL3x-7" style="edgeStyle=orthogonalEdgeStyle;rounded=0;orthogonalLoop=1;jettySize=auto;html=1;entryX=0;entryY=0.5;entryDx=0;entryDy=0;startArrow=none;startFill=0;" parent="1" source="xkSgb3V-nkHPteCypL3x-1" target="xkSgb3V-nkHPteCypL3x-2" edge="1">
          <mxGeometry relative="1" as="geometry" />
        </mxCell>
        <mxCell id="xkSgb3V-nkHPteCypL3x-8" value="记录绘制指令，保存在显示列表中（Display item List）" style="edgeLabel;html=1;align=center;verticalAlign=middle;resizable=0;points=[];" parent="xkSgb3V-nkHPteCypL3x-7" vertex="1" connectable="0">
          <mxGeometry x="-0.06" relative="1" as="geometry">
            <mxPoint as="offset" />
          </mxGeometry>
        </mxCell>
        <mxCell id="xkSgb3V-nkHPteCypL3x-1" value="CPU" style="rounded=1;whiteSpace=wrap;html=1;fillColor=#008a00;strokeColor=#005700;fontColor=#ffffff;" parent="1" vertex="1">
          <mxGeometry x="20" y="710" width="120" height="50" as="geometry" />
        </mxCell>
        <mxCell id="ef1lEJWsDbzEu06CBzqD-1" value="根据绘制指令进行栅格化和合成处理，输出帧数据" style="edgeStyle=none;rounded=0;orthogonalLoop=1;jettySize=auto;html=1;" parent="1" source="xkSgb3V-nkHPteCypL3x-2" target="xkSgb3V-nkHPteCypL3x-12" edge="1">
          <mxGeometry relative="1" as="geometry" />
        </mxCell>
        <mxCell id="xkSgb3V-nkHPteCypL3x-2" value="GPU&lt;br&gt;" style="rounded=1;whiteSpace=wrap;html=1;fillColor=#008a00;strokeColor=#005700;fontColor=#ffffff;" parent="1" vertex="1">
          <mxGeometry x="840" y="710" width="120" height="50" as="geometry" />
        </mxCell>
        <mxCell id="xkSgb3V-nkHPteCypL3x-12" value="显示器" style="rounded=1;whiteSpace=wrap;html=1;fillColor=#008a00;strokeColor=#005700;fontColor=#ffffff;" parent="1" vertex="1">
          <mxGeometry x="1241" y="700" width="120" height="50" as="geometry" />
        </mxCell>
        <mxCell id="xkSgb3V-nkHPteCypL3x-20" value="" style="endArrow=none;html=1;entryX=0.486;entryY=0.99;entryDx=0;entryDy=0;dashed=1;endFill=0;entryPerimeter=0;" parent="1" target="gHlPVi5Nb15ljbLtVMSR-7" edge="1">
          <mxGeometry width="50" height="50" relative="1" as="geometry">
            <mxPoint x="300" y="732" as="sourcePoint" />
            <mxPoint x="240" y="560" as="targetPoint" />
          </mxGeometry>
        </mxCell>
        <mxCell id="xkSgb3V-nkHPteCypL3x-29" value="Android/Chromium/Flutter" style="edgeLabel;html=1;align=center;verticalAlign=middle;resizable=0;points=[];" parent="xkSgb3V-nkHPteCypL3x-20" vertex="1" connectable="0">
          <mxGeometry x="-0.1885" y="-1" relative="1" as="geometry">
            <mxPoint x="65" y="-5" as="offset" />
          </mxGeometry>
        </mxCell>
        <mxCell id="xkSgb3V-nkHPteCypL3x-27" value="" style="endArrow=none;html=1;entryX=0.473;entryY=0.995;entryDx=0;entryDy=0;dashed=1;endFill=0;entryPerimeter=0;" parent="1" target="at9cCEKQv4XKAlWNlcCG-52" edge="1">
          <mxGeometry width="50" height="50" relative="1" as="geometry">
            <mxPoint x="1050.98" y="727.95" as="sourcePoint" />
            <mxPoint x="1000.0000000000005" y="540" as="targetPoint" />
          </mxGeometry>
        </mxCell>
        <mxCell id="xkSgb3V-nkHPteCypL3x-28" value="GLES/Vulkan" style="edgeLabel;html=1;align=center;verticalAlign=middle;resizable=0;points=[];" parent="xkSgb3V-nkHPteCypL3x-27" vertex="1" connectable="0">
          <mxGeometry x="-0.3578" relative="1" as="geometry">
            <mxPoint x="46" y="-12" as="offset" />
          </mxGeometry>
        </mxCell>
        <mxCell id="gHlPVi5Nb15ljbLtVMSR-6" value="" style="group;fillColor=#1ba1e2;fontColor=#ffffff;strokeColor=#006EAF;" parent="1" connectable="0" vertex="1">
          <mxGeometry y="450" width="800" height="166" as="geometry" />
        </mxCell>
        <mxCell id="gHlPVi5Nb15ljbLtVMSR-7" value="Rendering Pipeline" style="rounded=0;whiteSpace=wrap;html=1;dashed=1;verticalAlign=top;" parent="gHlPVi5Nb15ljbLtVMSR-6" vertex="1">
          <mxGeometry width="800" height="166" as="geometry" />
        </mxCell>
        <mxCell id="xkSgb3V-nkHPteCypL3x-16" value="LayerTree&lt;br&gt;（DisplayList）" style="rounded=1;whiteSpace=wrap;html=1;fillColor=#1ba1e2;strokeColor=#006EAF;fontColor=#ffffff;" parent="gHlPVi5Nb15ljbLtVMSR-6" vertex="1">
          <mxGeometry x="650" y="82" width="120" height="50" as="geometry" />
        </mxCell>
        <mxCell id="xkSgb3V-nkHPteCypL3x-17" value="" style="edgeStyle=orthogonalEdgeStyle;rounded=0;orthogonalLoop=1;jettySize=auto;html=1;startArrow=none;startFill=0;" parent="gHlPVi5Nb15ljbLtVMSR-6" source="at9cCEKQv4XKAlWNlcCG-14" target="xkSgb3V-nkHPteCypL3x-16" edge="1">
          <mxGeometry relative="1" as="geometry" />
        </mxCell>
        <mxCell id="at9cCEKQv4XKAlWNlcCG-2" value="" style="edgeStyle=orthogonalEdgeStyle;rounded=0;orthogonalLoop=1;jettySize=auto;html=1;startArrow=none;startFill=0;" edge="1" parent="gHlPVi5Nb15ljbLtVMSR-6" target="at9cCEKQv4XKAlWNlcCG-1">
          <mxGeometry relative="1" as="geometry">
            <mxPoint x="130" y="107" as="sourcePoint" />
            <mxPoint x="490" y="107" as="targetPoint" />
          </mxGeometry>
        </mxCell>
        <mxCell id="at9cCEKQv4XKAlWNlcCG-1" value="Style&amp;amp;Layout" style="rounded=1;whiteSpace=wrap;html=1;fillColor=#1ba1e2;strokeColor=#006EAF;fontColor=#ffffff;" vertex="1" parent="gHlPVi5Nb15ljbLtVMSR-6">
          <mxGeometry x="160" y="82" width="120" height="50" as="geometry" />
        </mxCell>
        <mxCell id="at9cCEKQv4XKAlWNlcCG-13" value="" style="edgeStyle=orthogonalEdgeStyle;rounded=0;orthogonalLoop=1;jettySize=auto;html=1;startArrow=none;startFill=0;" edge="1" parent="gHlPVi5Nb15ljbLtVMSR-6" source="at9cCEKQv4XKAlWNlcCG-1" target="at9cCEKQv4XKAlWNlcCG-12">
          <mxGeometry relative="1" as="geometry">
            <mxPoint x="330" y="107" as="sourcePoint" />
            <mxPoint x="490" y="107" as="targetPoint" />
          </mxGeometry>
        </mxCell>
        <mxCell id="at9cCEKQv4XKAlWNlcCG-12" value="Layerize" style="rounded=1;whiteSpace=wrap;html=1;fillColor=#1ba1e2;strokeColor=#006EAF;fontColor=#ffffff;" vertex="1" parent="gHlPVi5Nb15ljbLtVMSR-6">
          <mxGeometry x="320" y="82" width="120" height="50" as="geometry" />
        </mxCell>
        <mxCell id="at9cCEKQv4XKAlWNlcCG-16" value="" style="edgeStyle=orthogonalEdgeStyle;rounded=0;orthogonalLoop=1;jettySize=auto;html=1;startArrow=none;startFill=0;" edge="1" parent="gHlPVi5Nb15ljbLtVMSR-6" source="at9cCEKQv4XKAlWNlcCG-12" target="at9cCEKQv4XKAlWNlcCG-14">
          <mxGeometry relative="1" as="geometry">
            <mxPoint x="440" y="107" as="sourcePoint" />
            <mxPoint x="590" y="107" as="targetPoint" />
          </mxGeometry>
        </mxCell>
        <mxCell id="at9cCEKQv4XKAlWNlcCG-14" value="Paint" style="rounded=1;whiteSpace=wrap;html=1;fillColor=#1ba1e2;strokeColor=#006EAF;fontColor=#ffffff;" vertex="1" parent="gHlPVi5Nb15ljbLtVMSR-6">
          <mxGeometry x="470" y="82" width="120" height="50" as="geometry" />
        </mxCell>
        <mxCell id="at9cCEKQv4XKAlWNlcCG-53" value="DOM/View&amp;nbsp; Tree" style="rounded=1;whiteSpace=wrap;html=1;fillColor=#1ba1e2;strokeColor=#006EAF;fontColor=#ffffff;" vertex="1" parent="gHlPVi5Nb15ljbLtVMSR-6">
          <mxGeometry x="10" y="82" width="120" height="50" as="geometry" />
        </mxCell>
        <mxCell id="at9cCEKQv4XKAlWNlcCG-47" style="edgeStyle=orthogonalEdgeStyle;rounded=0;orthogonalLoop=1;jettySize=auto;html=1;" edge="1" parent="1" source="xkSgb3V-nkHPteCypL3x-16" target="at9cCEKQv4XKAlWNlcCG-45">
          <mxGeometry relative="1" as="geometry" />
        </mxCell>
        <mxCell id="at9cCEKQv4XKAlWNlcCG-29" value="Pixel" style="rounded=1;whiteSpace=wrap;html=1;fillColor=#1ba1e2;strokeColor=#006EAF;fontColor=#ffffff;" vertex="1" parent="1">
          <mxGeometry x="1200" y="532" width="120" height="50" as="geometry" />
        </mxCell>
        <mxCell id="at9cCEKQv4XKAlWNlcCG-48" style="edgeStyle=orthogonalEdgeStyle;rounded=0;orthogonalLoop=1;jettySize=auto;html=1;entryX=0;entryY=0.5;entryDx=0;entryDy=0;" edge="1" parent="1" source="at9cCEKQv4XKAlWNlcCG-45" target="at9cCEKQv4XKAlWNlcCG-46">
          <mxGeometry relative="1" as="geometry" />
        </mxCell>
        <mxCell id="at9cCEKQv4XKAlWNlcCG-45" value="Rasterization" style="rounded=1;whiteSpace=wrap;html=1;fillColor=#1ba1e2;strokeColor=#006EAF;fontColor=#ffffff;" vertex="1" parent="1">
          <mxGeometry x="840" y="532" width="120" height="50" as="geometry" />
        </mxCell>
        <mxCell id="at9cCEKQv4XKAlWNlcCG-49" style="edgeStyle=orthogonalEdgeStyle;rounded=0;orthogonalLoop=1;jettySize=auto;html=1;entryX=0;entryY=0.5;entryDx=0;entryDy=0;" edge="1" parent="1" source="at9cCEKQv4XKAlWNlcCG-46" target="at9cCEKQv4XKAlWNlcCG-29">
          <mxGeometry relative="1" as="geometry" />
        </mxCell>
        <mxCell id="at9cCEKQv4XKAlWNlcCG-46" value="Composite" style="rounded=1;whiteSpace=wrap;html=1;fillColor=#1ba1e2;strokeColor=#006EAF;fontColor=#ffffff;" vertex="1" parent="1">
          <mxGeometry x="1000" y="532" width="120" height="50" as="geometry" />
        </mxCell>
      </root>
    </mxGraphModel>
  </diagram>
</mxfile>
